<?xml version="1.0" standalone="no"?>
<!DOCTYPE svg PUBLIC "-//W3C//DTD SVG 20010904//EN"
 "http://www.w3.org/TR/2001/REC-SVG-20010904/DTD/svg10.dtd">
<svg version="1.0" xmlns="http://www.w3.org/2000/svg"
 width="366.000000pt" height="366.000000pt" viewBox="0 0 366.000000 366.000000"
 preserveAspectRatio="xMidYMid meet">
<metadata>
Created by potrace 1.14, written by Peter Selinger 2001-2017
</metadata>
<g transform="translate(0.000000,366.000000) scale(0.100000,-0.100000)"
fill="#000000" stroke="none">
<path d="M2470 3530 c-19 -11 -52 -24 -72 -30 -50 -14 -168 -142 -256 -277
-89 -137 -174 -270 -200 -313 -11 -19 -39 -53 -61 -75 -23 -21 -41 -46 -41
-55 0 -8 15 -40 33 -70 l33 -55 -24 -42 c-18 -32 -36 -48 -80 -69 -72 -34
-253 -153 -356 -233 -43 -33 -89 -61 -101 -61 -26 0 -55 -29 -55 -56 0 -47
115 -194 151 -194 6 0 32 19 59 43 26 23 67 53 91 66 l44 24 -20 -24 c-11 -13
-39 -45 -62 -71 -24 -26 -43 -51 -43 -56 0 -17 165 -121 210 -132 39 -11 69
-32 70 -51 0 -4 -14 -9 -32 -13 -46 -9 -88 -52 -88 -91 0 -19 -8 -39 -20 -50
-14 -13 -17 -22 -10 -31 14 -16 -8 -25 -32 -12 -12 6 -27 4 -45 -5 -25 -13
-28 -13 -48 12 -12 14 -31 44 -43 66 -42 84 -89 97 -107 32 l-11 -39 -83 82
c-78 77 -85 81 -122 79 -35 -3 -42 1 -64 31 -31 45 -56 149 -64 270 l-6 94
-75 63 c-114 96 -146 88 -264 -70 -30 -40 -36 -57 -35 -95 1 -77 24 -255 37
-278 14 -26 150 -154 164 -154 5 0 26 9 47 19 l37 20 73 -80 c78 -86 95 -92
156 -63 32 15 35 15 70 -9 36 -24 36 -25 38 -100 2 -69 5 -79 32 -107 17 -17
29 -39 28 -48 -4 -30 41 -106 76 -129 39 -27 81 -29 141 -8 23 8 46 15 51 15
15 0 -14 -53 -62 -113 -52 -66 -159 -257 -159 -285 0 -47 100 -127 258 -206
38 -19 52 -32 50 -44 -3 -15 -14 -17 -84 -14 -152 7 -185 -27 -192 -198 -4
-93 -2 -107 14 -122 11 -9 76 -32 145 -52 154 -44 259 -49 342 -15 90 36 98
39 107 39 6 0 10 -13 10 -28 0 -59 12 -62 277 -62 l240 0 22 24 c21 22 22 32
20 109 -2 60 1 90 10 101 10 12 11 23 3 43 -15 37 -18 85 -8 101 5 8 4 18 -2
24 -7 7 5 23 40 50 28 22 58 53 67 69 9 16 24 29 33 29 23 0 48 38 48 75 0 38
-27 123 -74 240 -42 102 -73 157 -129 233 l-40 53 7 96 c4 63 12 103 21 113
11 13 15 45 15 131 0 113 -1 116 -27 141 -16 14 -36 30 -47 35 -14 8 4 12 72
17 156 12 353 53 380 80 20 20 0 52 -43 70 -45 19 -209 177 -250 241 -18 28
-42 77 -54 110 -12 33 -30 69 -40 80 -25 29 -43 95 -26 95 7 0 32 -38 54 -84
33 -65 59 -100 120 -160 55 -53 86 -76 104 -76 56 0 69 65 32 170 -51 148 -55
389 -10 685 20 134 17 165 -28 257 -19 40 -41 97 -48 127 -17 67 -63 109 -160
145 -83 31 -84 31 -129 6z m-830 -2314 c0 -2 -7 -7 -16 -10 -8 -3 -12 -2 -9 4
6 10 25 14 25 6z"/>
</g>
</svg>
